<?xml version="1.0" standalone="no"?>
<!DOCTYPE svg PUBLIC "-//W3C//DTD SVG 20010904//EN"
 "http://www.w3.org/TR/2001/REC-SVG-20010904/DTD/svg10.dtd">
<svg version="1.0" xmlns="http://www.w3.org/2000/svg"
 width="1080.000000pt" height="1347.000000pt" viewBox="0 0 1080.000000 1347.000000"
 preserveAspectRatio="xMidYMid meet">

<g transform="translate(0.000000,1347.000000) scale(0.100000,-0.100000)"
fill="#000000" stroke="none">
<path d="M1310 11917 c0 -53 13 -64 80 -66 91 -3 175 -25 268 -72 137 -69 234
-188 311 -383 21 -51 72 -239 81 -296 5 -30 14 -86 20 -125 5 -38 15 -98 20
-131 6 -34 10 -89 10 -123 0 -49 4 -65 20 -78 22 -19 90 -19 102 0 4 7 7 111
6 232 -1 311 1 375 12 375 5 0 16 -17 26 -37 9 -21 38 -83 65 -138 27 -55 49
-106 49 -113 0 -6 5 -12 10 -12 6 0 10 -7 10 -15 0 -18 32 -89 43 -93 4 -2 7
-12 7 -22 0 -11 14 -42 30 -70 17 -28 30 -54 30 -57 0 -3 20 -47 43 -97 24
-50 52 -112 63 -138 10 -27 22 -48 27 -48 4 0 7 -7 7 -15 0 -8 4 -23 10 -33
28 -50 80 -166 80 -178 0 -8 5 -14 10 -14 6 0 10 -6 10 -12 0 -7 9 -31 20 -53
72 -147 110 -231 110 -242 0 -7 5 -13 10 -13 6 0 10 -6 10 -14 0 -8 7 -27 15
-43 28 -53 132 -278 151 -325 10 -27 22 -48 27 -48 4 0 7 -6 7 -13 0 -8 7 -29
16 -48 9 -19 26 -54 38 -79 11 -25 24 -46 29 -48 4 -2 7 -11 7 -19 0 -8 24
-65 54 -127 29 -61 63 -131 74 -156 11 -25 34 -75 51 -113 17 -37 31 -71 31
-76 0 -5 7 -14 15 -21 8 -7 15 -21 15 -31 0 -11 5 -19 10 -19 6 0 10 -6 10
-14 0 -14 20 -60 94 -219 20 -42 36 -84 36 -93 0 -8 5 -12 10 -9 6 3 10 0 10
-9 0 -8 11 -36 24 -63 13 -26 30 -63 37 -80 8 -18 17 -33 21 -33 5 0 8 -11 8
-25 0 -14 5 -25 10 -25 6 0 10 -5 10 -10 0 -10 83 -192 115 -253 8 -16 15 -37
15 -47 0 -10 3 -20 8 -22 9 -4 82 -150 82 -166 0 -7 5 -12 10 -12 6 0 10 -6
10 -14 0 -8 6 -27 14 -43 8 -15 30 -62 49 -103 19 -41 42 -90 51 -109 9 -19
16 -40 16 -48 0 -7 5 -13 10 -13 6 0 10 -8 10 -19 0 -10 7 -24 15 -31 8 -7 15
-18 15 -24 0 -6 14 -38 30 -69 17 -32 30 -67 30 -78 0 -10 5 -19 10 -19 6 0
10 -4 10 -10 0 -5 22 -56 49 -112 27 -57 52 -113 55 -125 4 -13 12 -23 17 -23
5 0 9 -11 9 -25 0 -14 5 -25 10 -25 6 0 10 -5 10 -10 0 -6 20 -52 44 -103 109
-228 136 -287 136 -293 0 -12 85 -179 93 -182 4 -2 7 -17 7 -33 0 -16 4 -29 8
-29 5 0 16 -19 26 -42 10 -24 39 -86 63 -138 60 -127 112 -238 128 -275 30
-70 61 -130 68 -133 4 -2 7 -15 7 -28 0 -13 5 -24 10 -24 6 0 10 -4 10 -9 0
-5 22 -56 50 -114 27 -58 52 -117 56 -131 3 -14 10 -26 15 -26 5 0 9 -9 9 -20
0 -11 5 -20 10 -20 6 0 10 -6 10 -14 0 -13 28 -77 51 -116 5 -8 14 -26 20 -40
12 -29 45 -101 99 -215 21 -44 50 -107 65 -140 15 -33 40 -87 56 -120 16 -33
29 -66 29 -73 0 -6 5 -12 10 -12 6 0 10 -5 10 -10 0 -6 18 -49 40 -96 22 -47
40 -88 40 -91 0 -2 13 -32 29 -66 16 -34 37 -81 47 -104 10 -24 21 -43 26 -43
4 0 8 -5 8 -10 0 -6 9 -30 20 -52 11 -23 20 -48 20 -55 0 -7 5 -13 10 -13 6 0
10 -8 10 -18 0 -27 32 -52 66 -52 25 0 33 7 47 35 9 20 17 42 17 50 0 8 5 15
10 15 6 0 10 10 10 23 0 13 4 27 9 33 5 5 14 27 21 49 7 22 23 63 35 90 13 28
36 86 51 130 15 44 44 123 65 175 22 52 39 100 39 108 0 7 5 10 10 7 6 -4 10
6 10 22 0 16 4 33 9 39 5 5 16 34 26 64 15 48 26 77 65 175 4 11 13 36 20 55
7 19 17 46 22 60 19 45 27 64 48 120 12 30 28 70 36 88 8 18 14 41 14 52 0 10
3 20 7 22 9 3 55 125 56 146 0 6 4 12 8 12 4 0 10 13 14 30 4 16 11 30 16 30
5 0 9 8 9 18 0 9 9 42 21 72 11 30 31 87 45 125 13 39 33 89 44 112 11 24 20
50 20 58 0 8 5 15 10 15 6 0 10 7 10 15 0 8 4 15 9 15 20 0 129 -101 156 -144
16 -25 33 -46 38 -46 4 0 5 -4 2 -10 -3 -5 -2 -10 3 -10 5 0 24 -21 42 -47 38
-54 183 -201 250 -255 137 -108 315 -210 386 -221 93 -15 203 30 251 102 19
28 23 48 23 107 0 40 -4 75 -9 78 -4 3 -11 27 -15 53 -3 27 -13 61 -21 77 -8
15 -15 34 -15 42 0 7 -9 29 -20 49 -11 20 -20 42 -20 50 0 8 -4 15 -10 15 -5
0 -10 9 -10 20 0 11 -3 20 -7 20 -10 0 -33 49 -33 68 0 7 -5 10 -10 7 -6 -3
-10 -2 -10 4 0 19 -145 232 -162 239 -5 2 -8 10 -8 17 0 7 -4 15 -8 17 -5 2
-33 35 -62 73 -30 39 -59 75 -64 81 -6 6 -33 37 -61 69 -27 32 -65 74 -82 93
-18 18 -33 35 -33 36 0 3 -58 66 -141 152 -49 52 -57 70 -40 102 16 29 121
300 121 312 0 5 4 18 9 28 8 15 24 56 51 127 4 11 18 45 30 75 12 30 27 66 32
80 6 14 16 38 24 53 8 16 14 34 14 41 0 14 34 107 51 138 5 10 9 24 9 32 0 9
8 14 20 13 11 -1 20 -8 20 -17 0 -15 66 -150 79 -160 3 -3 17 -27 31 -55 14
-27 27 -52 30 -55 3 -3 15 -21 27 -41 29 -51 56 -82 153 -179 92 -93 135 -128
182 -147 41 -18 65 -16 72 4 9 21 -4 103 -15 103 -5 0 -9 6 -9 14 0 13 -38 94
-50 106 -3 3 -11 16 -19 30 -32 57 -37 64 -51 83 -8 11 -21 25 -27 32 -7 8
-13 18 -13 24 0 6 -4 11 -9 11 -5 0 -22 20 -38 45 -15 25 -31 45 -35 45 -5 0
-8 6 -8 14 0 8 -3 16 -7 18 -5 2 -28 28 -53 58 -25 30 -57 69 -72 85 -16 17
-28 36 -28 43 0 7 -4 10 -10 7 -5 -3 -10 -2 -10 3 0 5 -18 28 -40 51 -40 42
-43 56 -23 111 3 8 16 42 28 75 43 118 60 160 66 165 3 3 9 16 12 30 8 35 135
371 188 495 4 11 15 42 24 69 14 43 31 88 65 171 24 57 70 183 75 205 1 3 6
16 12 30 6 14 22 52 34 85 13 33 27 64 31 70 4 5 8 19 8 32 0 13 4 23 9 23 5
0 12 18 16 40 4 22 11 40 16 40 5 0 9 10 9 23 0 13 4 27 8 32 5 6 15 30 22 55
8 25 17 50 20 55 4 6 17 37 29 70 34 90 71 186 87 222 8 17 14 38 14 46 0 9 5
19 10 22 6 3 10 16 10 29 0 12 4 26 9 31 14 15 141 353 141 375 0 11 3 20 8
20 4 0 15 24 25 53 10 28 27 75 39 102 11 28 24 59 28 70 4 11 15 37 24 58 9
21 16 47 16 57 0 11 5 20 10 20 6 0 10 6 10 14 0 8 25 79 56 158 30 79 65 168
76 198 11 30 26 69 34 87 8 17 14 40 14 52 0 12 4 21 9 21 5 0 11 10 14 23 8
36 69 191 78 202 5 5 9 19 9 32 0 17 4 21 16 16 15 -6 16 -49 10 -492 -3 -267
-8 -605 -11 -751 -3 -146 -7 -454 -10 -685 -8 -566 -24 -1535 -30 -1775 -2
-107 -7 -343 -10 -525 -3 -181 -7 -422 -10 -535 -3 -113 -7 -360 -10 -550 -17
-999 -47 -1696 -85 -2000 -31 -243 -87 -448 -168 -609 -31 -63 -139 -182 -185
-207 -139 -73 -184 -87 -320 -99 l-78 -7 3 -36 3 -37 1079 0 c594 -1 1098 2
1120 5 35 4 41 9 44 31 4 38 -22 59 -73 59 -62 0 -172 25 -231 52 -129 60
-212 150 -271 296 -40 96 -88 285 -99 387 -4 39 -8 79 -10 90 -11 80 -25 373
-23 480 1 72 1 227 0 345 -2 206 12 942 25 1330 3 102 7 276 7 388 0 111 4
202 7 202 4 0 6 120 5 267 -1 146 2 287 6 312 6 37 28 1197 31 1661 1 69 4 96
9 80 5 -14 7 68 6 190 -2 307 16 783 48 1235 23 322 91 625 183 815 48 101
169 224 262 267 74 35 197 63 275 63 52 0 54 1 65 36 7 20 8 40 4 44 -11 11
-242 19 -1024 36 -485 10 -478 11 -499 -11 -11 -11 -41 -76 -66 -145 -25 -69
-50 -134 -55 -145 -5 -11 -18 -45 -29 -75 -10 -30 -43 -116 -71 -190 -28 -74
-66 -175 -85 -225 -18 -49 -70 -184 -115 -300 -45 -115 -87 -226 -94 -245 -25
-68 -108 -286 -142 -371 -19 -48 -34 -90 -34 -93 0 -3 -8 -25 -19 -49 -10 -23
-55 -139 -99 -257 -45 -118 -106 -280 -137 -360 -30 -80 -69 -181 -86 -225
-17 -44 -41 -107 -54 -140 -13 -33 -42 -109 -65 -170 -41 -111 -65 -173 -81
-210 -4 -11 -24 -63 -44 -115 -20 -52 -49 -129 -65 -171 -17 -42 -30 -80 -30
-86 0 -5 -6 -23 -14 -39 -12 -26 -109 -269 -138 -349 -15 -41 -27 -55 -42 -49
-15 6 -66 105 -66 128 0 8 -4 18 -10 21 -6 3 -10 20 -10 36 0 18 -4 28 -10 24
-6 -4 -10 6 -10 24 0 16 -4 33 -10 36 -5 3 -10 17 -10 30 0 13 -4 27 -10 30
-5 3 -10 29 -10 57 0 28 -3 48 -7 44 -9 -8 -52 176 -52 226 -1 20 4 40 9 43 6
3 10 17 10 31 0 13 -4 24 -10 24 -5 0 -10 6 -10 14 0 22 -19 30 -35 16 -17
-14 -19 -67 -6 -120 5 -19 14 -62 21 -95 7 -33 16 -69 20 -80 5 -11 11 -33 14
-50 6 -38 36 -153 47 -180 34 -89 46 -149 31 -159 -4 -2 -43 29 -87 70 -43 41
-82 74 -87 74 -4 0 -8 7 -8 15 0 8 -7 15 -15 15 -8 0 -15 5 -15 10 0 6 -7 10
-15 10 -8 0 -15 4 -15 9 0 15 -106 65 -123 58 -13 -5 -17 -19 -17 -55 0 -26 4
-52 8 -57 13 -15 78 -180 103 -260 12 -38 25 -79 30 -90 4 -11 10 -43 13 -71
5 -40 3 -54 -10 -65 -13 -11 -22 -9 -60 11 -56 31 -75 19 -51 -33 35 -74 36
-79 8 -103 -22 -19 -24 -26 -14 -42 38 -62 60 -263 35 -309 -7 -12 -22 -23
-34 -25 -18 -2 -24 -11 -29 -38 -3 -19 -1 -44 4 -55 13 -27 68 -85 82 -85 6 0
23 -6 38 -12 24 -11 27 -17 22 -45 -3 -18 -12 -45 -20 -60 -8 -15 -15 -33 -15
-39 0 -6 -7 -18 -17 -25 -13 -11 -17 -11 -20 -1 -3 6 -9 10 -14 6 -5 -3 -9 -1
-9 4 0 11 -18 31 -166 183 -124 127 -210 209 -220 209 -4 0 -19 12 -33 28 -15
15 -49 45 -76 67 -27 22 -59 48 -71 59 -12 10 -25 16 -28 15 -3 -2 -11 3 -18
12 -7 8 -40 35 -73 59 -33 24 -65 49 -70 54 -53 56 -231 147 -317 163 -16 3
-28 8 -28 12 0 3 -28 7 -63 9 -57 3 -66 0 -89 -23 -52 -52 -57 -248 -11 -415
8 -30 18 -68 23 -85 18 -66 45 -140 52 -143 4 -2 8 -11 8 -19 0 -20 69 -156
84 -165 7 -5 5 -8 -6 -8 -19 0 -48 23 -133 105 -89 85 -116 106 -128 102 -14
-4 -10 -310 4 -315 5 -2 9 -53 9 -113 0 -60 4 -109 9 -109 5 0 12 -37 15 -82
3 -46 7 -108 10 -138 5 -46 4 -51 -6 -32 -6 12 -15 22 -20 22 -4 0 -8 7 -8 15
0 8 -9 30 -20 50 -11 20 -20 42 -20 50 0 8 -4 15 -10 15 -5 0 -10 7 -10 15 0
8 -16 43 -35 78 -19 35 -35 71 -35 80 0 9 -4 17 -10 17 -5 0 -10 6 -10 13 0 8
-15 45 -33 83 -19 38 -42 87 -51 109 -10 22 -23 49 -29 60 -16 30 -62 124 -82
170 -10 22 -42 90 -72 151 -29 61 -53 116 -53 123 0 6 -4 11 -10 11 -5 0 -10
6 -10 14 0 8 -11 36 -24 63 -14 26 -48 98 -76 158 -29 61 -65 137 -80 170 -29
60 -87 185 -153 325 -19 41 -67 141 -106 222 -39 82 -71 150 -71 154 0 3 -31
69 -69 147 -112 229 -171 359 -171 372 0 8 -3 15 -7 17 -7 3 -83 152 -83 162
0 3 -30 67 -66 143 -36 76 -82 172 -101 213 -19 41 -56 118 -80 170 -25 52
-78 165 -118 251 -40 86 -93 199 -118 250 -25 52 -95 200 -155 329 -61 129
-137 293 -171 363 -34 70 -61 130 -61 131 0 2 -31 68 -68 147 -38 79 -79 167
-92 194 -86 188 -113 245 -134 285 -14 25 -44 90 -69 145 -85 191 -140 295
-160 301 -32 10 -67 12 -67 3 0 -4 -10 -6 -22 -3 -22 5 -568 13 -1091 17
l-237 2 0 -28z m5710 -3996 c36 -30 67 -57 70 -61 3 -3 26 -23 52 -44 51 -41
78 -84 78 -124 0 -24 -42 -139 -206 -561 -35 -91 -64 -172 -64 -182 0 -9 -6
-19 -14 -22 -14 -6 -26 12 -26 39 0 8 -5 20 -10 27 -46 54 -50 63 -50 103 0
24 5 46 10 49 6 3 10 19 10 35 0 16 -4 32 -10 35 -5 3 -10 28 -10 56 0 36 4
49 14 49 8 0 17 -4 20 -9 8 -12 56 -1 56 14 0 7 -9 24 -20 38 -11 14 -20 32
-20 41 0 9 -4 16 -8 16 -4 0 -13 14 -19 30 -11 29 -10 31 25 48 44 21 52 51
40 137 -5 33 -11 80 -15 104 -3 30 -8 39 -14 30 -6 -10 -9 -4 -9 17 0 18 -7
45 -15 60 -17 33 -20 70 -5 79 6 3 10 26 10 51 l0 45 33 -23 c17 -12 61 -47
97 -77z m371 -348 c35 -38 75 -82 89 -99 14 -18 51 -61 84 -97 32 -37 66 -77
75 -90 151 -223 196 -306 186 -344 -6 -23 -6 -24 -35 -6 -16 9 -41 27 -54 40
-14 13 -29 23 -34 23 -14 0 -152 142 -152 157 0 4 -14 23 -31 41 -16 17 -26
32 -22 32 4 0 0 5 -9 11 -10 5 -18 17 -18 24 0 8 -4 15 -8 15 -5 0 -14 16 -22
35 -8 19 -17 35 -22 35 -4 0 -8 15 -8 33 0 24 -3 28 -10 17 -8 -13 -10 -12
-10 3 0 11 -9 30 -20 44 -11 14 -20 34 -20 44 0 11 -4 19 -9 19 -5 0 -12 14
-16 30 -4 17 -10 30 -15 30 -4 0 -10 8 -13 19 -5 19 9 51 22 51 4 0 37 -30 72
-67z m-1665 -69 c90 -30 168 -72 244 -128 41 -30 100 -73 130 -94 58 -42 222
-176 330 -270 130 -115 380 -374 380 -395 0 -7 -21 -69 -46 -138 -25 -68 -48
-134 -51 -146 -3 -13 -9 -23 -14 -23 -5 0 -9 -10 -9 -23 0 -13 -4 -27 -8 -32
-5 -6 -25 -54 -46 -107 -22 -56 -44 -98 -51 -98 -8 0 -20 12 -28 28 -26 50
-78 144 -92 166 -8 13 -12 26 -8 31 5 4 2 5 -4 1 -8 -4 -13 -1 -13 9 0 8 -7
18 -15 21 -8 4 -15 14 -15 24 0 11 -5 22 -10 25 -6 4 -20 28 -32 53 -12 26
-25 49 -28 52 -13 10 -140 281 -149 318 -5 20 -14 51 -19 67 -26 78 -32 105
-32 152 0 36 4 53 15 57 26 10 14 39 -21 50 -38 12 -57 -19 -49 -78 8 -66 34
-176 46 -198 5 -10 9 -24 9 -31 0 -7 13 -39 30 -72 16 -33 30 -68 30 -77 0
-10 5 -18 10 -18 6 0 10 -7 10 -15 0 -16 163 -318 180 -335 3 -3 17 -27 30
-55 14 -27 28 -52 31 -55 12 -9 109 -184 109 -196 0 -32 -33 -16 -103 50 -125
115 -201 183 -249 219 -25 19 -60 48 -78 63 -17 16 -40 36 -49 44 -213 187
-251 223 -251 238 0 6 -4 12 -8 14 -4 2 -18 21 -31 43 -13 22 -39 63 -58 92
-18 28 -33 59 -33 67 0 9 -4 16 -9 16 -5 0 -14 15 -21 33 -6 17 -16 40 -21 49
-5 10 -9 25 -9 33 0 8 -4 23 -10 33 -14 26 -37 82 -51 127 -7 22 -17 44 -21
50 -4 5 -8 35 -8 67 0 32 -4 58 -10 58 -6 0 -10 35 -10 84 0 82 18 151 44 169
15 10 81 2 142 -19z m1139 -542 c5 -12 14 -22 20 -23 5 0 1 -4 -10 -8 -24 -10
-45 9 -45 39 0 27 21 22 35 -8z m-1319 -200 c32 -31 104 -97 159 -147 55 -49
121 -109 146 -134 26 -25 66 -62 90 -82 53 -44 142 -122 149 -130 3 -3 12 -10
22 -15 9 -5 34 -25 55 -44 21 -20 48 -42 59 -50 12 -9 64 -54 115 -102 52 -47
115 -105 142 -128 26 -23 47 -49 47 -57 0 -8 -9 -33 -20 -55 -11 -23 -20 -46
-20 -50 0 -5 -9 -28 -20 -50 -11 -23 -20 -50 -20 -60 0 -10 -4 -18 -10 -18 -5
0 -10 -7 -10 -16 0 -9 -6 -30 -14 -47 -7 -18 -20 -52 -27 -77 -7 -25 -23 -65
-35 -90 -12 -25 -36 -85 -54 -135 -62 -169 -120 -320 -130 -337 -6 -10 -10
-27 -10 -38 0 -11 -4 -20 -8 -20 -4 0 -14 -20 -21 -45 -13 -43 -31 -61 -31
-30 0 8 -4 15 -10 15 -5 0 -10 9 -10 19 0 11 -4 23 -10 26 -5 3 -10 15 -10 26
0 10 -4 19 -10 19 -5 0 -10 6 -10 13 0 8 -18 51 -40 96 -22 45 -40 88 -40 96
0 8 -3 15 -7 15 -5 0 -17 20 -28 45 -11 25 -23 45 -27 45 -5 0 -8 9 -8 19 0
11 -4 23 -10 26 -5 3 -10 15 -10 26 0 10 -4 19 -10 19 -5 0 -10 11 -10 25 0
14 -3 25 -8 25 -4 0 -13 15 -21 33 -7 17 -40 87 -72 155 -33 67 -59 129 -59
136 0 8 -7 19 -15 26 -8 7 -15 21 -15 31 0 11 -4 19 -10 19 -5 0 -10 5 -10 10
0 6 -9 30 -20 52 -11 23 -20 48 -20 55 0 7 -4 13 -10 13 -5 0 -10 8 -10 18 0
10 -4 22 -10 28 -5 5 -15 48 -21 94 -6 47 -14 94 -19 105 -24 62 -67 685 -46
685 1 0 30 -26 62 -58z m1615 -507 c124 -139 194 -225 183 -225 -5 0 2 -7 14
-16 12 -8 43 -46 68 -82 24 -37 63 -92 84 -122 72 -100 150 -256 190 -380 23
-72 29 -194 12 -227 -15 -27 -67 -64 -112 -80 -60 -22 -121 -16 -186 17 -32
16 -65 30 -72 30 -7 0 -10 5 -7 10 3 6 0 10 -8 10 -8 0 -38 16 -66 35 -28 19
-53 35 -56 35 -5 0 -20 12 -100 84 -22 19 -46 36 -52 36 -7 0 -13 3 -13 8 0 4
-28 37 -63 73 -96 103 -113 129 -82 129 8 0 15 -4 15 -10 0 -5 4 -10 10 -10
10 0 22 -9 89 -65 73 -62 160 -125 170 -125 6 0 11 -4 11 -8 0 -11 68 -34 80
-27 19 12 10 34 -23 59 -19 15 -38 26 -44 26 -5 0 -18 9 -28 20 -10 11 -22 20
-27 20 -5 0 -15 6 -22 13 -41 39 -162 137 -171 137 -3 0 -19 14 -35 30 -16 17
-32 30 -35 30 -4 0 -12 6 -19 13 -30 28 -67 57 -73 57 -13 0 -103 100 -103
115 0 8 -5 15 -10 15 -6 0 -15 12 -21 27 -8 21 -5 41 13 92 13 36 26 68 30 69
5 2 8 12 8 22 0 10 6 31 14 47 8 15 24 55 36 88 12 33 25 69 30 80 5 11 25 65
46 120 21 55 42 103 47 106 8 6 165 -150 278 -276z m2236 -1622 c-3 -10 -5 -4
-5 12 0 17 2 24 5 18 2 -7 2 -21 0 -30z"/>
<path d="M1400 9924 c0 -29 4 -55 9 -58 4 -3 16 -27 26 -53 39 -100 212 -384
298 -488 9 -11 44 -56 79 -100 35 -44 66 -81 70 -83 5 -2 8 -8 8 -12 0 -5 11
-21 24 -35 13 -14 34 -52 46 -85 13 -33 27 -63 31 -66 5 -3 9 -14 9 -25 0 -28
26 -75 46 -83 15 -6 16 -1 11 39 -4 27 -3 45 3 45 5 0 42 -33 82 -72 49 -49
81 -91 97 -128 47 -108 51 -118 51 -132 0 -8 4 -18 9 -23 4 -6 11 -26 15 -45
4 -25 3 -31 -4 -20 -5 8 -10 11 -10 6 0 -5 -26 15 -57 45 -47 44 -58 51 -61
36 -2 -10 6 -39 18 -65 49 -104 90 -208 90 -229 0 -13 4 -23 9 -23 17 0 39
-176 24 -191 -5 -5 -25 -1 -48 11 -74 38 -90 19 -50 -60 l27 -53 -28 -22 -28
-23 27 -50 c15 -27 27 -55 27 -62 0 -7 10 -34 21 -59 29 -61 59 -143 59 -157
0 -14 -44 1 -78 26 -44 32 -82 39 -82 16 0 -7 21 -33 48 -57 57 -53 92 -97 92
-116 0 -15 -41 9 -90 54 -27 25 -60 30 -60 10 0 -8 12 -24 26 -38 36 -34 64
-92 64 -134 0 -19 4 -35 8 -35 4 0 9 -33 10 -73 3 -82 -13 -116 -55 -120 -20
-1 -23 -7 -23 -50 0 -53 10 -68 74 -111 47 -31 92 -34 101 -7 9 30 -5 72 -37
113 -28 37 -29 41 -33 178 l-4 140 28 0 c54 0 61 33 23 107 -16 32 -16 33 7
49 20 15 23 22 17 61 -3 24 -21 82 -41 128 -19 47 -35 88 -35 91 0 3 16 2 35
-2 34 -6 35 -5 35 25 0 17 -4 31 -10 31 -5 0 -10 5 -10 11 0 6 -8 23 -19 37
-10 15 -21 37 -25 49 -6 18 -2 24 18 29 29 7 51 30 58 60 8 33 -17 163 -47
246 -34 91 -37 124 -12 120 25 -4 47 16 47 44 0 13 -11 58 -25 101 -30 95 -30
103 -5 103 31 0 24 24 -20 75 -52 60 -52 77 -2 74 57 -4 65 5 58 64 -4 27 -16
73 -27 101 -14 37 -17 64 -13 98 5 39 2 56 -20 97 -34 66 -34 81 4 81 34 0 45
25 37 87 -5 40 -9 52 -39 123 -65 150 -82 180 -99 180 -11 0 -19 -4 -19 -10 0
-5 5 -10 10 -10 6 0 10 -9 10 -21 0 -11 6 -33 14 -47 8 -15 24 -54 36 -87 12
-33 26 -69 31 -80 5 -11 10 -32 11 -47 1 -16 7 -28 13 -28 5 0 4 -4 -4 -9 -16
-11 -35 -5 -73 21 -32 22 -68 24 -68 2 0 -8 -4 -12 -10 -9 -21 13 -9 -26 29
-97 22 -40 56 -116 76 -168 20 -52 41 -104 45 -115 25 -59 17 -92 -20 -80 -23
7 -50 59 -50 97 0 29 -32 78 -61 94 -19 9 -26 9 -41 -5 -15 -15 -17 -25 -9
-62 5 -24 11 -51 13 -59 3 -8 3 -12 1 -7 -3 4 -9 5 -13 2 -10 -6 -96 77 -134
128 -13 18 -44 86 -71 152 -79 199 -105 255 -196 415 -92 162 -227 329 -268
331 -9 0 -26 2 -38 3 -21 2 -23 -1 -23 -50z m144 -85 c31 -38 56 -72 56 -75 0
-3 13 -23 28 -43 16 -20 32 -43 35 -51 8 -18 30 -53 37 -60 3 -3 40 -75 83
-160 49 -98 77 -167 77 -187 l0 -33 -38 43 c-80 88 -161 210 -286 430 -41 72
-86 186 -80 202 9 23 30 7 88 -66z m770 -2794 c20 -31 20 -35 -1 -35 -23 0
-53 29 -46 46 8 21 29 17 47 -11z"/>
<path d="M6804 8816 c-4 -10 -2 -32 4 -49 22 -66 35 -103 44 -121 14 -26 48
-136 48 -152 0 -21 -48 -17 -77 6 -64 50 -90 4 -49 -87 56 -121 146 -206 146
-137 0 28 -25 89 -48 116 -17 20 -9 37 16 34 9 -2 25 6 35 18 15 17 17 30 11
71 -3 27 -10 58 -15 67 -5 9 -9 29 -9 45 0 22 -2 25 -10 13 -7 -12 -10 -8 -10
15 0 17 -9 41 -20 55 -11 14 -20 30 -20 35 0 6 -9 28 -20 49 -16 32 -21 36
-26 22z"/>
<path d="M2067 8703 c-13 -12 -7 -33 8 -33 8 0 15 -5 15 -12 0 -8 6 -6 17 4
13 14 14 20 3 32 -13 17 -32 21 -43 9z"/>
<path d="M1430 7472 c0 -18 49 -82 124 -162 57 -60 152 -187 174 -230 10 -19
33 -60 52 -90 20 -30 44 -72 55 -93 11 -21 28 -47 38 -57 9 -11 17 -26 17 -35
0 -9 5 -13 10 -10 6 3 10 1 10 -5 0 -6 5 -16 10 -23 25 -29 177 -267 195 -305
11 -23 23 -42 28 -42 4 0 7 -7 7 -16 0 -8 6 -22 13 -29 30 -35 37 -45 37 -58
0 -7 9 -23 20 -35 11 -12 20 -27 20 -35 0 -7 4 -17 9 -22 16 -17 24 -95 10
-95 -14 0 -248 155 -294 195 -240 208 -395 359 -542 525 -55 64 -114 127 -131
140 -16 14 -68 61 -114 105 -81 76 -107 100 -206 188 -43 38 -82 49 -82 22 0
-18 37 -56 225 -229 77 -71 181 -172 230 -223 254 -265 472 -477 563 -546 15
-12 29 -24 32 -27 3 -3 21 -17 40 -30 19 -13 37 -27 40 -30 3 -3 25 -18 50
-32 25 -15 54 -35 65 -45 31 -29 133 -76 150 -69 11 4 15 21 15 61 0 30 -4 55
-10 55 -5 0 -10 8 -10 18 0 16 -20 54 -94 187 -16 28 -35 57 -42 66 -8 8 -14
19 -14 23 0 4 -11 22 -25 40 -14 18 -25 36 -25 40 0 7 -79 127 -89 136 -13 11
-61 90 -61 100 0 5 -4 10 -10 10 -5 0 -10 6 -10 14 0 8 -4 16 -8 18 -7 3 -102
156 -102 164 0 15 31 -10 128 -103 159 -153 335 -311 438 -393 190 -152 280
-225 282 -232 2 -4 8 -8 13 -8 5 0 35 -20 66 -43 32 -24 94 -68 138 -97 44
-29 82 -56 85 -60 10 -12 116 -78 192 -119 76 -41 108 -50 108 -31 0 6 -9 10
-20 10 -11 0 -20 5 -20 10 0 6 -9 10 -20 10 -11 0 -20 4 -20 8 0 5 -12 15 -27
23 -32 16 -242 158 -259 174 -6 5 -27 21 -47 35 -20 14 -37 28 -37 33 0 4 -4
7 -10 7 -11 0 -118 79 -170 126 -19 18 -60 51 -90 75 -30 23 -57 45 -60 48 -5
6 -92 79 -149 126 -123 100 -604 569 -662 644 -50 66 -200 229 -216 235 -8 3
-13 -2 -13 -12z"/>
<path d="M1259 6813 c31 -43 190 -198 196 -191 3 3 -11 23 -32 45 -21 22 -64
70 -96 106 -32 37 -65 67 -74 67 -11 0 -10 -5 6 -27z"/>
<path d="M1496 6558 c28 -33 36 -40 72 -71 19 -15 31 -27 28 -27 -3 0 5 -10
17 -23 39 -41 209 -221 324 -343 61 -65 122 -132 134 -149 13 -16 33 -39 44
-50 12 -11 37 -40 55 -65 19 -25 42 -52 50 -60 9 -8 29 -33 45 -55 16 -22 42
-52 57 -68 16 -15 28 -31 28 -36 0 -5 3 -11 8 -13 4 -1 25 -25 47 -53 22 -27
43 -51 47 -53 5 -2 8 -7 8 -12 0 -5 18 -27 41 -51 22 -23 52 -58 67 -78 15
-20 38 -48 52 -62 44 -46 80 -89 80 -95 0 -3 20 -26 44 -52 84 -89 115 -126
143 -169 10 -15 26 -37 35 -47 10 -11 18 -23 18 -27 0 -4 9 -11 20 -14 11 -3
20 -11 20 -16 0 -5 25 -48 55 -94 30 -47 55 -90 55 -95 0 -4 4 -10 8 -12 8 -3
81 -148 117 -233 38 -88 43 -102 58 -155 29 -101 25 -130 -18 -130 -32 0 -40
-16 -21 -44 18 -28 80 -43 102 -25 9 7 14 31 14 68 0 142 -229 604 -389 787
-57 64 -121 140 -217 255 -49 58 -145 170 -214 250 -118 137 -162 188 -241
284 -19 23 -45 53 -59 67 -14 15 -41 48 -60 74 -19 26 -69 83 -111 128 -42 45
-102 110 -135 145 -113 124 -428 441 -438 441 -5 0 -1 -10 10 -22z"/>
<path d="M2224 4592 l-51 -3 -8 -132 c-4 -73 -9 -161 -11 -197 -9 -177 -26
-317 -51 -410 -8 -30 -16 -66 -18 -80 -13 -89 -96 -274 -156 -349 -90 -112
-279 -200 -429 -201 -31 0 -61 -5 -68 -12 -14 -14 -16 -64 -2 -73 12 -7 2279
-7 2291 1 12 7 11 61 -1 69 -6 3 -49 10 -98 15 -143 14 -240 40 -350 91 -34
16 -64 29 -66 29 -21 0 -226 157 -267 205 -134 155 -207 261 -281 410 -81 163
-174 416 -218 592 l-10 41 -78 4 c-42 2 -100 2 -128 0z"/>
</g>
</svg>
